<svg xmlns:dc="http://purl.org/dc/elements/1.1/" xmlns:cc="http://creativecommons.org/ns#" xmlns:rdf="http://www.w3.org/1999/02/22-rdf-syntax-ns#" xmlns:svg="http://www.w3.org/2000/svg" xmlns="http://www.w3.org/2000/svg" xmlns:sodipodi="http://sodipodi.sourceforge.net/DTD/sodipodi-0.dtd" xmlns:inkscape="http://www.inkscape.org/namespaces/inkscape" id="svg2" version="1.1" inkscape:version="0.48.4 r9939" width="100%" height="100%" viewBox="0 0 1998 652" xml:space="preserve">
  <metadata id="metadata8">
    <rdf:RDF>
      <cc:Work rdf:about="">
        <dc:format>image/svg+xml</dc:format>
        <dc:type rdf:resource="http://purl.org/dc/dcmitype/StillImage"/>
        <dc:title/>
      </cc:Work>
    </rdf:RDF>
  </metadata>
  <defs id="defs6"/>
  <g id="g10" inkscape:groupmode="layer" inkscape:label="ink_ext_XXXXXX" transform="matrix(1.25,0,0,-1.25,0,651.75)">
    <g id="g12">
      <path d="m134.5 399.1 c1.7 0 120.6 0 122.3 0 -0.8 1.5 -60.2 120.5 -61.2 122.3 -0.9 -1.9 -60.4 -120.9 -61.2 -122.3 " style="fill:#d1e40e;fill-opacity:1;fill-rule:nonzero;stroke:none" id="path14"/>
      <path d="m269.1 130 c1.7 0 120.6 0 122.4 0 -0.8 1.5 -60.2 120.5 -61.2 122.4 -0.9 -1.9 -60.4 -120.9 -61.2 -122.4 " style="fill:#6bc62e;fill-opacity:1;fill-rule:nonzero;stroke:none" id="path16"/>
      <path d="m201.8 257.1 c0.8 -1.5 60.2 -120.5 61.2 -122.4 0.9 1.9 60.4 120.9 61.2 122.4 -1.7 0 -120.6 0 -122.4 0 " style="fill:#78ca2a;fill-opacity:1;fill-rule:nonzero;stroke:none" id="path18"/>
      <path d="m134.5 130 c1.7 0 120.7 0 122.4 0 -0.8 1.5 -60.3 120.6 -61.2 122.4 -0.9 -1.8 -60.4 -120.9 -61.2 -122.4 " style="fill:#85ce26;fill-opacity:1;fill-rule:nonzero;stroke:none" id="path20"/>
      <path d="m0 130 c1.7 0 120.6 0 122.4 0 -0.8 1.5 -60.3 120.6 -61.2 122.4 C60.3 250.6 0.8 131.5 0 130 " style="fill:#9ed51e;fill-opacity:1;fill-rule:nonzero;stroke:none" id="path22"/>
      <path d="m67.3 257.1 c0.8 -1.5 60.2 -120.6 61.2 -122.4 0.9 1.8 60.4 120.9 61.2 122.4 -1.7 0 -120.6 0 -122.3 0 " style="fill:#91d122;fill-opacity:1;fill-rule:nonzero;stroke:none" id="path24"/>
      <path d="m201.8 264.6 c1.7 0 120.6 0 122.4 0 -0.8 1.5 -60.2 120.5 -61.2 122.4 -0.9 -1.9 -60.4 -120.9 -61.2 -122.4 " style="fill:#abd91a;fill-opacity:1;fill-rule:nonzero;stroke:none" id="path26"/>
      <path d="m67.3 264.6 c1.7 0 120.6 0 122.3 0 -0.8 1.5 -60.3 120.6 -61.2 122.4 -0.9 -1.8 -60.4 -120.9 -61.2 -122.4 " style="fill:#c4e112;fill-opacity:1;fill-rule:nonzero;stroke:none" id="path28"/>
      <path d="m134.5 391.7 c0.8 -1.5 60.3 -120.6 61.2 -122.4 0.9 1.8 60.4 120.9 61.2 122.4 -1.7 0 -120.6 0 -122.4 0 " style="fill:#b8dd16;fill-opacity:1;fill-rule:nonzero;stroke:none" id="path30"/>
      <path d="M134.5 122.4 C135.3 120.9 194.8 1.8 195.7 0 c0.9 1.8 60.4 120.9 61.2 122.4 -1.7 0 -120.6 0 -122.4 0 " style="fill:#5ec232;fill-opacity:1;fill-rule:nonzero;stroke:none" id="path32"/>
      <path d="m523.3 144.3 -36.6 0 0 178.7 -1.9 -1.3 -4.2 -2.9 -26.1 -17.7 0 37.5 68.9 40.7 0 -235 " style="fill:#645856;fill-opacity:1;fill-rule:nonzero;stroke:none" id="path34"/>
      <path d="m630.8 347.9 c-20.1 0 -40.3 -13.2 -40.3 -42.6 l0 -88.9 c0 -29.5 20.3 -42.6 40.3 -42.6 20.1 0 40.3 13.2 40.3 42.6 l0 88.9 c0 29.5 -20.3 42.6 -40.3 42.6 l0 0 zm0 -208.5 c-38.3 0 -77 24.6 -77 79.7 l0 83.6 c0 55 38.7 79.7 77 79.7 38.3 0 77 -24.6 77 -79.7 l0 -83.6 c0 -55 -38.7 -79.7 -77 -79.7 l0 0 " style="fill:#645856;fill-opacity:1;fill-rule:nonzero;stroke:none" id="path36"/>
      <path d="m827.2 343 0 -88.3 60.5 0 c36.6 0 49.5 23.8 49.5 44.1 0 20.4 -13 44.2 -49.5 44.2 l-60.5 0 0 0 zm0 -198.6 -36.6 0 0 232.9 100.6 0 c49.5 0 82.8 -31.6 82.8 -78.5 0 -47 -33.3 -78.5 -82.8 -78.5 l-63.9 0 0 -75.9 " style="fill:#645856;fill-opacity:1;fill-rule:nonzero;stroke:none" id="path38"/>
      <path d="m1010.7 345.6 c-10.1 0 -18.3 8.2 -18.3 18.3 0 10.1 8.2 18.3 18.3 18.3 10.1 0 18.3 -8.2 18.3 -18.3 0 -10.1 -8.2 -18.3 -18.3 -18.3 l0 0 zm16 -201.3 -32 0 0 177.7 32 0 0 -177.7 " style="fill:#645856;fill-opacity:1;fill-rule:nonzero;stroke:none" id="path40"/>
      <path d="m1217.8 144.3 -32.1 0 0 99.3 c0 42.5 -26.1 51.4 -48 51.4 -30.1 0 -49.5 -19.9 -49.5 -50.7 l0 -100 -32.1 0 0 177.8 32.1 0 0 -37 2.2 5 3.4 6.8 1.5 2.4 0.8 1.3 c10.9 16.9 30.4 26.6 53.5 26.6 38.2 0 68.2 -32.8 68.2 -74.7 l0 -108.1 " style="fill:#645856;fill-opacity:1;fill-rule:nonzero;stroke:none" id="path42"/>
      <path d="m1334.9 299.6 c-28 0 -49.6 -17.8 -56.4 -46.3 l-0.8 -3.4 -0.3 -1.4 117.5 0 -0.4 1.5 -1.1 3.5 c-8.6 28.9 -30.4 46.1 -58.5 46.1 l0 0 zm5.3 -160.3 c-63.9 0 -98.4 48.4 -98.4 93.9 0 45.5 34.5 93.9 98.5 93.9 38.4 0 92.4 -31.2 92.4 -100.4 l0 -3.4 -154.5 0 0.1 -1.3 0.2 -3 c2.4 -29.3 29 -52.3 60.7 -52.3 21.2 0 40.1 9.5 54.7 27.6 l26.7 -14.9 c-21.8 -25.6 -50.2 -39.9 -80.3 -40.2 l0 0 " style="fill:#645856;fill-opacity:1;fill-rule:nonzero;stroke:none" id="path44"/>
      <path d="m1523.4 139.3 c-28.7 0 -53.4 9.2 -77.8 29 l21.4 21.8 c15.9 -15.5 38.7 -25.6 58.3 -25.6 24.4 0 40.7 14.1 40.7 27.3 0 9.3 -4.7 21.1 -27.4 25.3 l-22.6 4.2 c-52.7 9.7 -63.5 26.6 -63.5 49.1 0 28.1 23.7 56.7 68.9 56.7 24 0 45.1 -7 67.9 -22.6 l-17.5 -21.7 c-16 12.7 -32.6 19.1 -49.2 19.1 -18.9 0 -38 -9.4 -38 -27.3 0 -12.6 8.9 -20.2 27.4 -23.4 l40.2 -7.7 c31.3 -5.8 45.9 -20.3 45.9 -45.6 0 -28.2 -23.4 -58.6 -74.7 -58.6 l0 0 " style="fill:#645856;fill-opacity:1;fill-rule:nonzero;stroke:none" id="path46"/>
    </g>
  </g>
</svg>
